<svg xmlns="http://www.w3.org/2000/svg" xmlns:xlink="http://www.w3.org/1999/xlink" fill="none" version="1.1" width="32" height="32" viewBox="0 0 32 32"><defs><clipPath id="master_svg0_45_53979"><rect x="32" y="0" width="32" height="32" rx="0"/></clipPath></defs><g transform="matrix(-1,0,0,1,64,0)" clip-path="url(#master_svg0_45_53979)"><g><path d="M53.5263,29L38.47368,29C36.55894,29,35,27.4846,35,25.6256L35,14.37445C35,12.51248,36.55894,11,38.47368,11L53.5263,11C55.4411,11,57,12.51542,57,14.37445L57,25.6256C57,27.4846,55.4411,29,53.5263,29ZM38.47368,13.24963C37.83443,13.24963,37.31579,13.75477,37.31579,14.37445L37.31579,25.6256C37.31579,26.2452,37.83443,26.7504,38.47368,26.7504L53.5263,26.7504C54.1656,26.7504,54.684200000000004,26.2452,54.684200000000004,25.6256L54.684200000000004,14.37445C54.684200000000004,13.75477,54.1656,13.24963,53.5263,13.24963L38.47368,13.24963Z" fill="currentColor" fill-opacity="1"/></g><g><path d="M59.8455,14C59.400800000000004,14,58.977199999999996,13.75342,58.7879,13.34055C56.3301,7.99331,50.44391,7.1962399999999995,47.15379,7.1962399999999995C46.516803,7.1962399999999995,46,6.7030899999999995,46,6.09812C46,5.493151,46.516803,5,47.15379,5C53.70998,5,58.7218,7.72093,60.9032,12.4632C61.1586,13.01943,60.8911,13.66741,60.3082,13.91112C60.158,13.97133,59.9988,14,59.8455,14Z" fill="currentColor" fill-opacity="1"/></g><g><path d="M46.97254,9C46.70998,9,46.44474,8.899750000000001,46.2438,8.69655L44.301407,6.73493C43.899531,6.32852,43.899531,5.67284,44.301407,5.26643L46.2438,3.304809C46.64568,2.898397,47.29672,2.898397,47.69859,3.304809C48.10047,3.711221,48.10047,4.3669,47.69859,4.77331L46.48225,6.00068L47.69859,7.22804C48.10047,7.63445,48.10047,8.290130000000001,47.69859,8.69655C47.50033,8.89704,47.2351,9,46.97254,9Z" fill="currentColor" fill-opacity="1"/></g></g></svg>