<svg xmlns="http://www.w3.org/2000/svg" xmlns:xlink="http://www.w3.org/1999/xlink" fill="none" version="1.1" width="32" height="32" viewBox="0 0 32 32"><defs><clipPath id="master_svg0_45_53983"><rect x="0" y="0" width="32" height="32" rx="0"/></clipPath></defs><g clip-path="url(#master_svg0_45_53983)"><g><path d="M27.6331,25.9352L23.4729,21.7707C25.0266,19.8351,25.8723,17.4262,25.8698,14.9436C25.8704,8.89978,20.9745,4.0000000610774,14.9349,4.0000000610774C8.895900000000001,3.999410053,4.000000061038,8.89847,4.000000061038,14.942C3.999410434,20.9849,8.89602,25.8839,14.9365,25.8839C17.4262,25.887,19.8414,25.0346,21.7784,23.4695L25.937,27.6308C26.405,28.1142,27.1767,28.1242,27.6571,27.6532C28.1235,27.1717,28.1128,26.4034,27.6331,25.9352ZM6.403309999999999,14.9452C6.401009999999999,10.22775,10.22212,6.4023,14.9365,6.4023C19.6509,6.4023,23.472,10.22775,23.4697,14.9452C23.4697,19.6614,19.648899999999998,23.4847,14.9357,23.4847C10.22251,23.4847,6.40171,19.6614,6.40171,14.9452L6.403309999999999,14.9452Z" fill="currentColor" fill-opacity="1"/></g><g><path d="M18.92596,13.95234L16.04544,13.95234L16.04544,11.07546C16.04544,10.482923,15.576740000000001,10,15,10C14.423259999999999,10,13.95456,10.482923,13.95456,11.07546L13.95456,13.95393L11.07563,13.95393C10.489802,13.946860000000001,10.00871501,14.41508,10,15.00079C10,15.57903,10.483,16.04448,11.07563,16.04448L13.95456,16.04448L13.95456,18.92295C13.95456,19.51549,14.423259999999999,20,15,20C15.576740000000001,20,16.04544,19.51549,16.04544,18.92296L16.04544,16.04448L18.92437,16.04448C19.50959,16.05155,19.99042,15.58429,20,14.99921C19.992150000000002,14.41375,19.51152,13.94528,18.92596,13.95234Z" fill="currentColor" fill-opacity="1"/></g></g></svg>