<svg xmlns="http://www.w3.org/2000/svg" xmlns:xlink="http://www.w3.org/1999/xlink" fill="none" version="1.1" width="20" height="20" viewBox="0 0 32 32">
  <defs>
    <clipPath id="master_svg0_45_53988">
      <rect x="0" y="0" width="32" height="32" rx="0"/>
    </clipPath>
  </defs>
  <g clip-path="url(#master_svg0_45_53988)">
    <g>
      <path d="M21.6842,29L7.31579,29C5.48808,29,4,27.4846,4,25.6256L4,14.37445C4,12.51248,5.48808,11,7.31579,11L21.6842,11C23.5119,11,25,12.51542,25,14.37445L25,25.6256C25,27.4846,23.5119,29,21.6842,29ZM7.31579,13.24963C6.70559,13.24963,6.21053,13.75477,6.21053,14.37445L6.21053,25.6256C6.21053,26.2452,6.70559,26.7504,7.31579,26.7504L21.6842,26.7504C22.2944,26.7504,22.7895,26.2452,22.7895,25.6256L22.7895,14.37445C22.7895,13.75477,22.2944,13.24963,21.6842,13.24963L7.31579,13.24963Z" fill="currentColor" fill-opacity="1"/>
    </g>
    <g>
      <path d="M26.9225,14C26.5074,14,26.112000000000002,13.75342,25.935299999999998,13.34055C23.64139,7.99331,18.14765,7.1962399999999995,15.07687,7.1962399999999995C14.48235,7.1962399999999995,14,6.7030899999999995,14,6.09812C14,5.493151,14.48235,5,15.07687,5C21.19598,5,25.8737,7.72093,27.909599999999998,12.4632C28.148,13.01943,27.898400000000002,13.66741,27.3544,13.91112C27.214100000000002,13.97133,27.0655,14,26.9225,14Z" fill="currentColor" fill-opacity="1"/>
    </g>
    <g>
      <path d="M14.97254,10C14.70998,10,14.44474,9.883040000000001,14.2438,9.64597L12.301407,7.35742C11.899531,6.8832699999999996,11.899531,6.11831,12.301407,5.644159999999999L14.2438,3.355611C14.64568,2.881463,15.29672,2.881463,15.69859,3.355611C16.10047,3.829758,16.10047,4.59472,15.69859,5.06886L14.48225,6.50079L15.69859,7.93272C16.10047,8.40686,16.10047,9.17182,15.69859,9.64597C15.50033,9.87988,15.2351,10,14.97254,10Z" fill="currentColor" fill-opacity="1"/>
    </g>
  </g>
</svg>
