<svg xmlns="http://www.w3.org/2000/svg" xmlns:xlink="http://www.w3.org/1999/xlink" fill="none" version="1.1" width="32" height="32" viewBox="0 0 32 32"><defs><clipPath id="master_svg0_45_53976"><rect x="0" y="0" width="32" height="32" rx="0"/></clipPath></defs><g clip-path="url(#master_svg0_45_53976)"><g><path d="M27.6331,25.9352L23.4729,21.7707C25.0266,19.8351,25.8723,17.4262,25.8698,14.9436C25.8704,8.89978,20.9745,4.0000000610774,14.9349,4.0000000610774C8.895900000000001,3.999410053,4.000000061038,8.89847,4.000000061038,14.942C3.999410434,20.9849,8.89602,25.8839,14.9365,25.8839C17.4262,25.887,19.8414,25.0346,21.7784,23.4695L25.937,27.6308C26.405,28.1142,27.1767,28.1242,27.6571,27.6532C28.1235,27.1717,28.1128,26.4034,27.6331,25.9352ZM6.403309999999999,14.9452C6.401009999999999,10.22775,10.22212,6.4023,14.9365,6.4023C19.6509,6.4023,23.472,10.22775,23.4697,14.9452C23.4697,19.6614,19.648899999999998,23.4847,14.9357,23.4847C10.22251,23.4847,6.40171,19.6614,6.40171,14.9452L6.403309999999999,14.9452Z" fill="currentColor" fill-opacity="1"/></g><g><rect x="10" y="14" width="10" height="2.200000047683716" rx="1.100000023841858" fill="currentColor" fill-opacity="1"/></g></g></svg>